<svg width="32" height="32" viewBox="0 0 32 32" fill="none" xmlns="http://www.w3.org/2000/svg">
<circle cx="16" cy="16" r="16" fill="#1DAEFF" fill-opacity="0.15"/>
<mask id="mask0_1215_13479" style="mask-type:alpha" maskUnits="userSpaceOnUse" x="6" y="8" width="18" height="18">
<path fill-rule="evenodd" clip-rule="evenodd" d="M17.5001 21.8649L15.9534 17.2257L20.5934 12.5849L17.5001 21.8649ZM19.4151 11.4066L14.7751 16.0466L10.1351 14.4999L19.4151 11.4066ZM23.3251 9.45657C23.3209 9.37907 23.3067 9.30407 23.2809 9.23157C23.2726 9.20573 23.2634 9.18073 23.2517 9.15573C23.2117 9.06657 23.1609 8.9824 23.0892 8.91073C23.0176 8.83907 22.9334 8.78823 22.8434 8.74823C22.8192 8.73657 22.7951 8.7274 22.7692 8.71907C22.6951 8.69323 22.6192 8.67823 22.5401 8.67407C22.5217 8.67323 22.5051 8.66907 22.4859 8.66907C22.4026 8.67073 22.3184 8.6824 22.2367 8.70907L7.23675 13.7091C6.89591 13.8232 6.66675 14.1407 6.66675 14.4999C6.66675 14.8591 6.89591 15.1774 7.23675 15.2907L14.3409 17.6591L16.7101 24.7641C16.8234 25.1041 17.1409 25.3332 17.5001 25.3332C17.8592 25.3332 18.1767 25.1041 18.2901 24.7641L23.2901 9.76407C23.3167 9.68157 23.3292 9.59823 23.3301 9.5149C23.3309 9.4949 23.3259 9.47657 23.3251 9.45657Z" fill="white"/>
</mask>
<g mask="url(#mask0_1215_13479)">
<rect x="5" y="7" width="20" height="20" fill="#1DAEFF"/>
</g>
</svg>
